<mxfile host="app.diagrams.net" modified="2022-01-17T12:03:27.637Z" agent="5.0 (Macintosh; Intel Mac OS X 10_15_7) AppleWebKit/605.1.15 (KHTML, like Gecko) Version/15.1 Safari/605.1.15" etag="piOUDof8PeaTh_NBFvy_" version="16.2.7" type="github">
  <diagram id="6NPVxZc6Zph17vFIf_1I" name="Page-1">
    <mxGraphModel dx="1123" dy="1875" grid="1" gridSize="10" guides="1" tooltips="1" connect="1" arrows="1" fold="1" page="1" pageScale="1" pageWidth="827" pageHeight="1169" math="0" shadow="0">
      <root>
        <mxCell id="0" />
        <mxCell id="1" parent="0" />
        <mxCell id="Uz0JHmNVNITLveVFGuAH-9" value="" style="whiteSpace=wrap;html=1;aspect=fixed;" vertex="1" parent="1">
          <mxGeometry x="220" y="-130" width="774" height="774" as="geometry" />
        </mxCell>
        <mxCell id="Uz0JHmNVNITLveVFGuAH-1" value="Utilisateur" style="shape=umlActor;html=1;verticalLabelPosition=bottom;verticalAlign=top;align=center;" vertex="1" parent="1">
          <mxGeometry x="140" y="260" width="30" height="60" as="geometry" />
        </mxCell>
        <mxCell id="Uz0JHmNVNITLveVFGuAH-3" value="Consulter les statistiques du compte" style="ellipse;whiteSpace=wrap;html=1;" vertex="1" parent="1">
          <mxGeometry x="270" y="340" width="180" height="70" as="geometry" />
        </mxCell>
        <mxCell id="Uz0JHmNVNITLveVFGuAH-6" value="Consulter aux statistiques des publications" style="ellipse;whiteSpace=wrap;html=1;" vertex="1" parent="1">
          <mxGeometry x="270" y="230" width="200" height="70" as="geometry" />
        </mxCell>
        <mxCell id="Uz0JHmNVNITLveVFGuAH-7" value="Consulter &amp;nbsp;aux publications" style="ellipse;whiteSpace=wrap;html=1;" vertex="1" parent="1">
          <mxGeometry x="270" y="110" width="200" height="70" as="geometry" />
        </mxCell>
        <mxCell id="Uz0JHmNVNITLveVFGuAH-11" value="&amp;lt;&amp;lt;extend&amp;gt;&amp;gt;" style="edgeStyle=none;html=1;startArrow=open;endArrow=none;startSize=12;verticalAlign=bottom;dashed=1;labelBackgroundColor=none;rounded=0;" edge="1" parent="1">
          <mxGeometry width="160" relative="1" as="geometry">
            <mxPoint x="450" y="370" as="sourcePoint" />
            <mxPoint x="570" y="330" as="targetPoint" />
            <Array as="points">
              <mxPoint x="500" y="330" />
            </Array>
          </mxGeometry>
        </mxCell>
        <mxCell id="Uz0JHmNVNITLveVFGuAH-12" value="Audience" style="shape=ellipse;html=1;strokeWidth=3;fontStyle=1;whiteSpace=wrap;align=center;perimeter=ellipsePerimeter;" vertex="1" parent="1">
          <mxGeometry x="570" y="301.25" width="120" height="60" as="geometry" />
        </mxCell>
        <mxCell id="Uz0JHmNVNITLveVFGuAH-14" value="ville" style="shape=ellipse;html=1;strokeWidth=3;fontStyle=1;whiteSpace=wrap;align=center;perimeter=ellipsePerimeter;" vertex="1" parent="1">
          <mxGeometry x="590" y="380" width="120" height="60" as="geometry" />
        </mxCell>
        <mxCell id="Uz0JHmNVNITLveVFGuAH-15" value="commentaires" style="shape=ellipse;html=1;strokeWidth=3;fontStyle=1;whiteSpace=wrap;align=center;perimeter=ellipsePerimeter;" vertex="1" parent="1">
          <mxGeometry x="330" y="525" width="120" height="60" as="geometry" />
        </mxCell>
        <mxCell id="Uz0JHmNVNITLveVFGuAH-16" value="j&#39;aimes" style="shape=ellipse;html=1;strokeWidth=3;fontStyle=1;whiteSpace=wrap;align=center;perimeter=ellipsePerimeter;" vertex="1" parent="1">
          <mxGeometry x="480" y="520" width="120" height="60" as="geometry" />
        </mxCell>
        <mxCell id="Uz0JHmNVNITLveVFGuAH-17" value="pays" style="shape=ellipse;html=1;strokeWidth=3;fontStyle=1;whiteSpace=wrap;align=center;perimeter=ellipsePerimeter;" vertex="1" parent="1">
          <mxGeometry x="590" y="470" width="120" height="60" as="geometry" />
        </mxCell>
        <mxCell id="Uz0JHmNVNITLveVFGuAH-18" value="&amp;lt;&amp;lt;extend&amp;gt;&amp;gt;" style="edgeStyle=none;html=1;startArrow=open;endArrow=none;startSize=12;verticalAlign=bottom;dashed=1;labelBackgroundColor=none;rounded=0;exitX=0.982;exitY=0.658;exitDx=0;exitDy=0;exitPerimeter=0;" edge="1" parent="1" source="Uz0JHmNVNITLveVFGuAH-3">
          <mxGeometry x="0.295" y="5" width="160" relative="1" as="geometry">
            <mxPoint x="430" y="400" as="sourcePoint" />
            <mxPoint x="590" y="400" as="targetPoint" />
            <mxPoint as="offset" />
          </mxGeometry>
        </mxCell>
        <mxCell id="Uz0JHmNVNITLveVFGuAH-19" value="&amp;lt;&amp;lt;extend&amp;gt;&amp;gt;" style="edgeStyle=none;html=1;startArrow=open;endArrow=none;startSize=12;verticalAlign=bottom;dashed=1;labelBackgroundColor=none;rounded=0;entryX=0.252;entryY=0.101;entryDx=0;entryDy=0;entryPerimeter=0;exitX=0.616;exitY=0.994;exitDx=0;exitDy=0;exitPerimeter=0;" edge="1" parent="1" source="Uz0JHmNVNITLveVFGuAH-3" target="Uz0JHmNVNITLveVFGuAH-16">
          <mxGeometry x="0.4646" y="7" width="160" relative="1" as="geometry">
            <mxPoint x="340" y="470" as="sourcePoint" />
            <mxPoint x="500" y="470" as="targetPoint" />
            <mxPoint y="1" as="offset" />
          </mxGeometry>
        </mxCell>
        <mxCell id="Uz0JHmNVNITLveVFGuAH-20" value="&amp;lt;&amp;lt;extend&amp;gt;&amp;gt;" style="edgeStyle=none;html=1;startArrow=open;endArrow=none;startSize=12;verticalAlign=bottom;dashed=1;labelBackgroundColor=none;rounded=0;exitX=1;exitY=1;exitDx=0;exitDy=0;" edge="1" parent="1" source="Uz0JHmNVNITLveVFGuAH-3">
          <mxGeometry x="0.2751" y="8" width="160" relative="1" as="geometry">
            <mxPoint x="440" y="490" as="sourcePoint" />
            <mxPoint x="600" y="490" as="targetPoint" />
            <mxPoint as="offset" />
          </mxGeometry>
        </mxCell>
        <mxCell id="Uz0JHmNVNITLveVFGuAH-21" value="&amp;lt;&amp;lt;extend&amp;gt;&amp;gt;" style="edgeStyle=none;html=1;startArrow=open;endArrow=none;startSize=12;verticalAlign=bottom;dashed=1;labelBackgroundColor=none;rounded=0;entryX=0.667;entryY=0.083;entryDx=0;entryDy=0;entryPerimeter=0;exitX=0.387;exitY=0.977;exitDx=0;exitDy=0;exitPerimeter=0;" edge="1" parent="1" source="Uz0JHmNVNITLveVFGuAH-3" target="Uz0JHmNVNITLveVFGuAH-15">
          <mxGeometry x="0.0792" y="-32" width="160" relative="1" as="geometry">
            <mxPoint x="280" y="510" as="sourcePoint" />
            <mxPoint x="440" y="510" as="targetPoint" />
            <mxPoint as="offset" />
          </mxGeometry>
        </mxCell>
        <mxCell id="Uz0JHmNVNITLveVFGuAH-22" value="" style="edgeStyle=none;html=1;endArrow=none;verticalAlign=bottom;rounded=0;entryX=0.066;entryY=0.75;entryDx=0;entryDy=0;entryPerimeter=0;" edge="1" parent="1" target="Uz0JHmNVNITLveVFGuAH-7">
          <mxGeometry width="160" relative="1" as="geometry">
            <mxPoint x="170" y="289.40999999999997" as="sourcePoint" />
            <mxPoint x="330" y="289.40999999999997" as="targetPoint" />
          </mxGeometry>
        </mxCell>
        <mxCell id="Uz0JHmNVNITLveVFGuAH-23" value="" style="edgeStyle=none;html=1;endArrow=none;verticalAlign=bottom;rounded=0;entryX=0.013;entryY=0.666;entryDx=0;entryDy=0;entryPerimeter=0;" edge="1" parent="1" target="Uz0JHmNVNITLveVFGuAH-6">
          <mxGeometry width="160" relative="1" as="geometry">
            <mxPoint x="170" y="289.40999999999997" as="sourcePoint" />
            <mxPoint x="330" y="289.40999999999997" as="targetPoint" />
          </mxGeometry>
        </mxCell>
        <mxCell id="Uz0JHmNVNITLveVFGuAH-24" value="" style="edgeStyle=none;html=1;endArrow=none;verticalAlign=bottom;rounded=0;" edge="1" parent="1" target="Uz0JHmNVNITLveVFGuAH-3">
          <mxGeometry width="160" relative="1" as="geometry">
            <mxPoint x="170" y="289.40999999999997" as="sourcePoint" />
            <mxPoint x="330" y="289.40999999999997" as="targetPoint" />
          </mxGeometry>
        </mxCell>
        <mxCell id="Uz0JHmNVNITLveVFGuAH-25" value="genre" style="shape=ellipse;html=1;strokeWidth=3;fontStyle=1;whiteSpace=wrap;align=center;perimeter=ellipsePerimeter;" vertex="1" parent="1">
          <mxGeometry x="240" y="570" width="120" height="60" as="geometry" />
        </mxCell>
        <mxCell id="Uz0JHmNVNITLveVFGuAH-26" value="&amp;lt;&amp;lt;extend&amp;gt;&amp;gt;" style="edgeStyle=none;html=1;startArrow=open;endArrow=none;startSize=12;verticalAlign=bottom;dashed=1;labelBackgroundColor=none;rounded=0;exitX=0.074;exitY=0.776;exitDx=0;exitDy=0;exitPerimeter=0;" edge="1" parent="1" source="Uz0JHmNVNITLveVFGuAH-3">
          <mxGeometry x="0.1276" y="-24" width="160" relative="1" as="geometry">
            <mxPoint x="160" y="610" as="sourcePoint" />
            <mxPoint x="310" y="570" as="targetPoint" />
            <mxPoint as="offset" />
          </mxGeometry>
        </mxCell>
        <mxCell id="Uz0JHmNVNITLveVFGuAH-27" value="Afficher les graphs" style="shape=ellipse;html=1;strokeWidth=3;fontStyle=1;whiteSpace=wrap;align=center;perimeter=ellipsePerimeter;" vertex="1" parent="1">
          <mxGeometry x="580" y="170" width="120" height="60" as="geometry" />
        </mxCell>
        <mxCell id="Uz0JHmNVNITLveVFGuAH-28" value="&amp;lt;&amp;lt;extend&amp;gt;&amp;gt;" style="edgeStyle=none;html=1;startArrow=open;endArrow=none;startSize=12;verticalAlign=bottom;dashed=1;labelBackgroundColor=none;rounded=0;" edge="1" parent="1" source="Uz0JHmNVNITLveVFGuAH-6">
          <mxGeometry width="160" relative="1" as="geometry">
            <mxPoint x="420" y="200" as="sourcePoint" />
            <mxPoint x="580" y="200" as="targetPoint" />
          </mxGeometry>
        </mxCell>
        <mxCell id="Uz0JHmNVNITLveVFGuAH-29" value="Chercher des publications" style="ellipse;whiteSpace=wrap;html=1;" vertex="1" parent="1">
          <mxGeometry x="300" width="170" height="70" as="geometry" />
        </mxCell>
        <mxCell id="Uz0JHmNVNITLveVFGuAH-30" value="" style="edgeStyle=none;html=1;endArrow=none;verticalAlign=bottom;rounded=0;entryX=0;entryY=1;entryDx=0;entryDy=0;" edge="1" parent="1" target="Uz0JHmNVNITLveVFGuAH-29">
          <mxGeometry width="160" relative="1" as="geometry">
            <mxPoint x="180" y="280" as="sourcePoint" />
            <mxPoint x="300" y="110" as="targetPoint" />
            <Array as="points">
              <mxPoint x="300" y="70" />
            </Array>
          </mxGeometry>
        </mxCell>
        <mxCell id="Uz0JHmNVNITLveVFGuAH-31" value="Filtrer les publications" style="ellipse;whiteSpace=wrap;html=1;" vertex="1" parent="1">
          <mxGeometry x="300" y="-100" width="230" height="70" as="geometry" />
        </mxCell>
        <mxCell id="Uz0JHmNVNITLveVFGuAH-32" value="" style="edgeStyle=none;html=1;endArrow=none;verticalAlign=bottom;rounded=0;" edge="1" parent="1" target="Uz0JHmNVNITLveVFGuAH-31">
          <mxGeometry width="160" relative="1" as="geometry">
            <mxPoint x="180" y="280" as="sourcePoint" />
            <mxPoint x="250" y="50" as="targetPoint" />
            <Array as="points">
              <mxPoint x="260" y="-40" />
            </Array>
          </mxGeometry>
        </mxCell>
      </root>
    </mxGraphModel>
  </diagram>
</mxfile>
